<svg xmlns="http://www.w3.org/2000/svg" width="1024" height="1024" viewBox="0 0 1024 1024">
  <defs>
    <linearGradient id="g1" x1="0" y1="0" x2="1" y2="1">
      <stop offset="0" stop-color="#4f46e5"/>
      <stop offset="1" stop-color="#06b6d4"/>
    </linearGradient>
    <radialGradient id="g2" cx="50%" cy="45%" r="60%">
      <stop offset="0" stop-color="#101827"/>
      <stop offset="1" stop-color="#0b1324"/>
    </radialGradient>
  </defs>

  <rect x="96" y="128" rx="128" ry="128" width="832" height="768" fill="url(#g2)"/>
  <rect x="96" y="128" rx="128" ry="128" width="832" height="768" fill="none" stroke="url(#g1)" stroke-width="24"/>

  <circle cx="512" cy="512" r="248" fill="#0f172a" stroke="#1f2a44" stroke-width="20"/>
  <circle cx="512" cy="512" r="220" fill="none" stroke="url(#g1)" stroke-width="18"/>

  <g transform="translate(512 512)">
    <path d="M0,-200 L-24,-88 L120,-120 Z" fill="#4f46e5" opacity="0.95"/>
    <path d="M200,0 L88,24 L120,-120 Z" fill="#60a5fa" opacity="0.9"/>
    <path d="M0,200 L24,88 L-120,120 Z" fill="#06b6d4" opacity="0.95"/>
    <path d="M-200,0 L-88,-24 L-120,120 Z" fill="#34d399" opacity="0.9"/>
    <path d="M-120,-120 L-24,-88 L-88,24 Z" fill="#818cf8" opacity="0.9"/>
    <path d="M120,120 L24,88 L88,-24 Z" fill="#22d3ee" opacity="0.9"/>
  </g>

  <circle cx="512" cy="512" r="56" fill="#0ea5e9"/>
  <circle cx="512" cy="512" r="28" fill="#67e8f9"/>

  <g transform="translate(768 256)">
    <circle cx="0" cy="0" r="36" fill="#0ea5e9" opacity="0.2"/>
    <path d="M0,-28 L6,-6 L28,-6 L10,6 L16,28 L0,14 L-16,28 L-10,6 L-28,-6 L-6,-6 Z" fill="url(#g1)"/>
  </g>

  <rect x="184" y="184" width="160" height="80" rx="24" fill="#111827" stroke="#1f2937" stroke-width="8"/>
  <circle cx="232" cy="224" r="16" fill="#4f46e5"/>
  <rect x="264" y="208" width="64" height="32" rx="12" fill="#1f2937"/>
</svg>
