<?xml version="1.0" encoding="UTF-8"?>
<svg xmlns="http://www.w3.org/2000/svg" width="1200" height="560" viewBox="0 0 1200 560" version="1.1">
  <rect x="0" y="0" width="1200" height="560" fill="#0b1020"/>
  <rect x="20" y="20" width="1160" height="520" rx="16" fill="#0f172a" stroke="#1f2937"/>
  <g font-family="Segoe UI, Arial, sans-serif" fill="#e5e7eb">
    <text x="60" y="64" font-size="28" font-weight="700">Processing Flow</text>
  </g>
  <g font-family="Segoe UI, Arial, sans-serif">
    <rect x="60" y="120" width="280" height="120" rx="12" fill="#111827" stroke="#334155"/>
    <text x="76" y="148" fill="#cbd5e1" font-size="16">Input</text>
    <text x="76" y="172" fill="#94a3b8" font-size="14">Files/Folder/Drag&amp;Drop</text>
    <text x="76" y="198" fill="#94a3b8" font-size="12">jpg, png, webp, avif, heic</text>

    <rect x="360" y="120" width="300" height="120" rx="12" fill="#111827" stroke="#334155"/>
    <text x="376" y="148" fill="#cbd5e1" font-size="16">Transform</text>
    <text x="376" y="172" fill="#94a3b8" font-size="12">Sharp: resize, color drift, flatten</text>
    <text x="376" y="194" fill="#94a3b8" font-size="12">Format: JPG/PNG/WEBP/AVIF/HEIC</text>

    <rect x="700" y="120" width="300" height="120" rx="12" fill="#111827" stroke="#334155"/>
    <text x="716" y="148" fill="#cbd5e1" font-size="16">Metadata</text>
    <text x="716" y="172" fill="#94a3b8" font-size="12">Native write EXIF/IPTC/XMP</text>
    <text x="716" y="194" fill="#94a3b8" font-size="12">Fake: make/model/GPS/ISO/title</text>

    <rect x="1040" y="120" width="140" height="120" rx="12" fill="#111827" stroke="#334155"/>
    <text x="1056" y="148" fill="#cbd5e1" font-size="16">Output</text>
    <text x="1056" y="172" fill="#94a3b8" font-size="12">Renamed files</text>

    <line x1="340" y1="180" x2="360" y2="180" stroke="#475569" stroke-width="2"/>
    <polygon points="360,180 348,174 348,186" fill="#475569"/>
    <line x1="660" y1="180" x2="700" y2="180" stroke="#475569" stroke-width="2"/>
    <polygon points="700,180 688,174 688,186" fill="#475569"/>
    <line x1="1000" y1="180" x2="1040" y2="180" stroke="#475569" stroke-width="2"/>
    <polygon points="1040,180 1028,174 1028,186" fill="#475569"/>

    <rect x="60" y="300" width="360" height="120" rx="12" fill="#111827" stroke="#334155"/>
    <text x="76" y="328" fill="#cbd5e1" font-size="16">Similarity &amp; Hashing</text>
    <text x="76" y="352" fill="#94a3b8" font-size="12">Native a/d/pHash, Hamming index, clustering</text>
    <text x="76" y="374" fill="#94a3b8" font-size="12">WIC gray decode on Windows for speed</text>

    <rect x="460" y="300" width="360" height="120" rx="12" fill="#111827" stroke="#334155"/>
    <text x="476" y="328" fill="#cbd5e1" font-size="16">Auto‑update UX</text>
    <text x="476" y="352" fill="#94a3b8" font-size="12">Overlay progress, fallback GitHub download</text>
    <text x="476" y="374" fill="#94a3b8" font-size="12">One‑click install</text>

    <rect x="860" y="300" width="320" height="120" rx="12" fill="#111827" stroke="#334155"/>
    <text x="876" y="328" fill="#cbd5e1" font-size="16">Chat &amp; Admin</text>
    <text x="876" y="352" fill="#94a3b8" font-size="12">WS server with admin events, IP geo</text>
    <text x="876" y="374" fill="#94a3b8" font-size="12">In‑app client + admin panel</text>
  </g>
</svg>


